<svg xmlns="http://www.w3.org/2000/svg" viewBox="0 0 64 64" role="img" aria-label="Relego favicon">
	<rect width="64" height="64" rx="16" fill="#16110f" />
	<path fill="#f4ecdf" d="M27.84 51.77Q23.30 51.77 17.56 51.92L17.56 51.92L14.16 52.00L14.16 46.71L18.31 46.33Q20.58 46.10 21.91 45.46Q23.23 44.82 23.83 43.46Q24.44 42.09 24.44 39.75L24.44 39.75L24.44 32.64L31.24 32.64L31.24 39.75Q31.24 42.09 31.92 43.42Q32.60 44.74 34.12 45.42Q35.63 46.10 38.28 46.33L38.28 46.33L42.43 46.71L42.43 52.00L38.73 51.92Q32.68 51.77 27.84 51.77L27.84 51.77L27.84 51.77M24.44 25.38Q24.44 23.04 23.83 21.68Q23.23 20.32 21.91 19.67Q20.58 19.03 18.31 18.81L18.31 18.81L14.16 18.43L14.16 13.13Q16.88 13.29 19.30 13.29L19.30 13.29Q26.56 13.29 31.24 12.23L31.24 12.23L31.24 13.13L31.24 32.64L24.44 32.64L24.44 25.38M44.85 26.67Q43.12 26.67 42.06 25.72Q41.00 24.78 41.00 23.34L41.00 23.34Q41.00 22.66 41.26 21.98Q41.53 21.30 41.83 20.70L41.83 20.70Q42.06 20.32 42.25 19.90Q42.43 19.49 42.43 19.11L42.43 19.11Q42.43 18.50 41.87 18.12Q41.30 17.75 40.32 17.75L40.32 17.75Q38.65 17.75 36.57 18.92Q34.50 20.09 32.91 21.91Q31.32 23.72 30.94 25.61L30.94 25.61L30.49 20.09Q32.76 16.08 35.67 14.04Q38.58 12.00 41.98 12.00L41.98 12.00Q45.53 12.00 47.69 14.27Q49.84 16.54 49.84 20.24L49.84 20.24Q49.84 23.12 48.48 24.89Q47.12 26.67 44.85 26.67L44.85 26.67" />
</svg>
